<?xml version="1.0" encoding="utf-8"?>
<!-- Generator: Adobe Illustrator 16.0.0, SVG Export Plug-In . SVG Version: 6.00 Build 0)  -->
<!DOCTYPE svg PUBLIC "-//W3C//DTD SVG 1.1//EN" "http://www.w3.org/Graphics/SVG/1.1/DTD/svg11.dtd">
<svg version="1.1" id="Layer_1" xmlns="http://www.w3.org/2000/svg" xmlns:xlink="http://www.w3.org/1999/xlink" x="0px" y="0px"
	 width="398.5px" height="85.5px" viewBox="16.5 7 398.5 85.5" style="enable-background:new 16.5 7 398.5 85.5;"
	 xml:space="preserve">
<style type="text/css">
<![CDATA[
	.st0{fill:#FFFFFF;}
]]>
</style>
<g>
	<path class="st0" d="M234.3,63.1c-0.8,0.5-1.7,1-2.5,1.4c-2.5,1.1-5.1,1.4-7.3,1.4c-2.4,0-6.2-0.1-10.1-2.9
		c-5.4-3.8-7.7-10.3-7.7-15.9c0-11.7,9.5-17.5,17.3-17.5c2.7,0,5.5,0.7,7.8,2.1c3.8,2.5,4.8,5.7,5.3,7.5l-17.8,7.2l-5.8,0.5
		c1.9,9.6,8.4,15.2,15.6,15.2c3.9,0,6.6-1.4,9.2-2.6L234.3,63.1L234.3,63.1z M227.2,40.6c1.4-0.5,2.2-1,2.2-2c0-3-3.4-6.5-7.5-6.5
		c-3,0-8.7,2.3-8.7,10.5c0,1.3,0.1,2.6,0.2,4L227.2,40.6L227.2,40.6z"/>
</g>
<g>
	<path class="st0" d="M204.9,64.8h-13.4c1.7-2.3,2-2.5,2-4V48.5c0-5.9,0.1-14.3,0.3-22.1c0.1-3.9,0.4-8.7,0.5-12.2h-5.9l5.7-2.7
		h10.8c-2.3,1.4-3.1,1.8-3.4,4.5c-0.6,5.8-0.7,15-0.7,25.8v17.5c0,2.9,0.5,3.4,3,3.6c1.3,0.2,2.6,0.2,3.9,0.4L204.9,64.8L204.9,64.8
		z"/>
</g>
<g>
	<path class="st0" d="M180.1,33.3c1.7,1.4,5.4,4.5,5.4,10.2c0,5.6-3.2,8.2-6.3,10.7c-1,1-2.1,2-2.1,3.7s1.1,2.6,2,3.3l2.7,2.1
		c3.3,2.8,6.3,5.4,6.3,10.6c0,7.1-6.9,14.3-19.9,14.3c-11,0-16.2-5.2-16.2-10.8c0-2.7,1.4-6.6,5.8-9.2c4.7-2.9,11-3.2,14.4-3.5
		c-1.1-1.4-2.3-2.8-2.3-5.1c0-1.3,0.4-2,0.8-2.9c-0.8,0.1-1.7,0.1-2.4,0.1c-8,0-12.5-6-12.5-11.9c0-3.5,1.6-7.3,4.8-10.1
		c4.3-3.6,9.4-4.2,13.5-4.2h15.6l-4.8,2.7L180.1,33.3L180.1,33.3z M174.7,66.8c-0.6-0.1-1-0.1-1.7-0.1c-0.7,0-4.8,0.2-7.9,1.2
		c-1.7,0.6-6.5,2.4-6.5,7.8c0,5.4,5.2,9.2,13.3,9.2c7.3,0,11.1-3.5,11.1-8.2C182.9,73,180.5,70.9,174.7,66.8L174.7,66.8z
		 M176.9,52.5c1.7-1.7,1.9-4.2,1.9-5.5c0-5.4-3.2-13.9-9.5-13.9c-2,0-4.1,1-5.3,2.5c-1.3,1.6-1.7,3.6-1.7,5.6
		c0,5.1,2.9,13.5,9.4,13.5C173.7,54.6,175.7,53.7,176.9,52.5L176.9,52.5z"/>
</g>
<g>
	<path class="st0" d="M133.2,65.8c-12,0-18.4-9.4-18.4-17.8c0-9.9,8.1-18.4,19.6-18.4c11.1,0,18.1,8.7,18.1,17.8
		C152.4,56.3,145.5,65.8,133.2,65.8L133.2,65.8z M142.7,59.7c1.8-2.4,2.3-5.4,2.3-8.4c0-6.7-3.2-19.3-12.5-19.3c-2.5,0-5,1-6.8,2.6
		c-2.9,2.6-3.5,6-3.5,9.2c0,7.5,3.7,19.8,12.8,19.8C137.9,63.5,140.9,62.1,142.7,59.7L142.7,59.7z"/>
</g>
<g>
	<path class="st0" d="M93,65.8c-12,0-18.4-9.4-18.4-17.8c0-9.9,8.1-18.4,19.6-18.4c11.1,0,18.1,8.7,18.1,17.8
		C112.2,56.3,105.3,65.8,93,65.8L93,65.8z M102.5,59.7c1.8-2.4,2.3-5.4,2.3-8.4c0-6.7-3.2-19.3-12.5-19.3c-2.5,0-5,1-6.8,2.6
		c-2.9,2.6-3.5,6-3.5,9.2c0,7.5,3.7,19.8,12.8,19.8C97.7,63.5,100.7,62.1,102.5,59.7L102.5,59.7z"/>
</g>
<g>
	<path class="st0" d="M69.8,63.1l-10.1,2.3c-4.1,0.6-7.8,1.2-11.7,1.2c-19.6,0-27-14.4-27-25.6c0-13.7,10.6-26.5,28.6-26.5
		c3.8,0,7.5,0.6,10.8,1.5c5.3,1.5,7.8,3.3,9.4,4.4L63.9,26l-2.5,0.6l1.8-2.8c-2.4-2.3-6.8-6.7-15.2-6.7c-11.2,0-19.6,8.5-19.6,20.9
		c0,13.3,9.6,25.9,25.1,25.9c4.5,0,6.9-0.9,9-1.8V50.7l-10.7,0.6l5.7-3h15L70.6,50c-0.5,0.4-0.6,0.6-0.7,1.1
		c-0.1,0.6-0.1,2.7-0.1,3.4L69.8,63.1L69.8,63.1z"/>
</g>
<path class="st0" d="M267.7,17.3l17.5,42h0.2l17.6-42h5.2V65h-3.9v-21l0.3-20.9l-0.2-0.1l-17.7,42H284l-17.7-41.8l-0.2,0l0.4,20.7
	v21h-3.9V17.3H267.7z"/>
<path class="st0" d="M339,65c-0.3-1.2-0.4-2.2-0.6-3.1c-0.1-0.9-0.2-1.8-0.2-2.7c-1.3,1.9-3.1,3.4-5.2,4.6c-2.2,1.2-4.6,1.8-7.4,1.8
	c-3.4,0-6.1-0.9-8-2.8c-1.9-1.8-2.9-4.3-2.9-7.4c0-3.3,1.4-5.9,4.2-7.9c2.8-2,6.6-2.9,11.4-2.9h7.8v-4.4c0-2.5-0.8-4.5-2.4-6
	c-1.6-1.4-3.9-2.2-6.8-2.2c-2.7,0-5,0.7-6.8,2.1s-2.7,3.1-2.7,5l-3.6,0l-0.1-0.2c-0.1-2.6,1.1-5,3.6-7.1c2.5-2.1,5.8-3.1,9.7-3.1
	c3.9,0,7,1,9.4,3s3.6,4.8,3.6,8.5v17.4c0,1.2,0.1,2.5,0.2,3.6c0.1,1.2,0.4,2.3,0.7,3.5H339z M326.2,62.2c2.8,0,5.3-0.7,7.5-2
	c2.2-1.3,3.7-3,4.7-5.1v-7.4h-7.9c-3.6,0-6.4,0.8-8.5,2.3s-3.2,3.4-3.2,5.6c0,1.9,0.7,3.5,2,4.7C322,61.6,323.8,62.2,326.2,62.2z"/>
<path class="st0" d="M379.2,48.2c0,5.3-1.2,9.5-3.6,12.7s-5.7,4.7-9.9,4.7c-2.5,0-4.7-0.5-6.5-1.4s-3.4-2.3-4.6-4v18.4h-3.9v-49h3.3
	l0.5,5.5c1.2-2,2.7-3.5,4.6-4.6c1.9-1.1,4.1-1.6,6.6-1.6c4.3,0,7.6,1.7,10,5.1c2.4,3.4,3.6,7.9,3.6,13.6V48.2z M375.3,47.5
	c0-4.5-0.9-8.2-2.7-11c-1.8-2.8-4.4-4.3-7.9-4.3c-2.6,0-4.8,0.6-6.4,1.9c-1.6,1.3-2.9,2.9-3.7,4.9v17c0.9,1.9,2.2,3.5,3.9,4.6
	c1.7,1.1,3.8,1.7,6.3,1.7c3.4,0,6-1.3,7.8-3.9c1.8-2.6,2.7-6,2.7-10.3V47.5z"/>
<path class="st0" d="M407.2,56c0-1.7-0.7-3.1-2-4.3c-1.4-1.2-3.8-2.3-7.4-3c-4.2-0.9-7.4-2.1-9.4-3.6s-3-3.6-3-6.4
	c0-2.7,1.1-5,3.4-6.9s5.3-2.8,9.1-2.8c4,0,7.2,1,9.5,3c2.3,2,3.4,4.4,3.3,7.4l-0.1,0.2H407c0-1.9-0.8-3.6-2.5-5.1s-3.9-2.2-6.7-2.2
	c-2.9,0-5,0.6-6.4,1.8c-1.4,1.2-2.1,2.7-2.1,4.3c0,1.6,0.6,3,1.8,4c1.2,1.1,3.7,2,7.4,2.8c4.2,0.9,7.4,2.2,9.5,3.9
	c2.1,1.6,3.1,3.8,3.1,6.6c0,3-1.2,5.3-3.6,7.2s-5.5,2.7-9.5,2.7c-4.3,0-7.7-1-10.1-3.1c-2.5-2.1-3.6-4.5-3.5-7.3l0.1-0.2h3.6
	c0.2,2.5,1.2,4.4,3.1,5.5c1.9,1.2,4.2,1.7,6.8,1.7c2.8,0,5.1-0.6,6.7-1.9C406.4,59.2,407.2,57.7,407.2,56z"/>
</svg>
