<svg version="1.1" xmlns="http://www.w3.org/2000/svg" xmlns:xlink="http://www.w3.org/1999/xlink" x="0px" y="0px" viewBox="0 0 94.3 40" style="enable-background:new 0 0 94.3 40;" xml:space="preserve">
<style>
	.logo-path {
		fill: white;
	}
</style>
<path class="logo-path" d="M7.7,31.5L8,33l-0.2,0.2c-0.7-0.8-1.1-1-1.7-1H5.5l0,5.2c0,0.8,0.4,1.1,1.4,1.2v0.2H2.8v-0.2
	c1-0.2,1.3-0.5,1.3-1.2l0-5.2H3.5c-0.7,0-1.1,0.2-1.7,1L1.6,33l0.3-1.5H7.7z"/>
<path class="logo-path" d="M7.7,31.5L8,33l-0.2,0.2c-0.7-0.8-1.1-1-1.7-1H5.5l0,5.2c0,0.8,0.4,1.1,1.4,1.2v0.2H2.8v-0.2
	c1-0.2,1.3-0.5,1.3-1.2l0-5.2H3.5c-0.7,0-1.1,0.2-1.7,1L1.6,33l0.3-1.5H7.7z"/>
<path class="logo-path" d="M17.7,33l-0.1,2.7c0,1.7-0.1,1.8-0.6,2.4c-0.4,0.5-1.1,0.8-2.1,0.8c-0.6,0-1.1-0.1-1.5-0.2
	c-0.2-0.1-0.4-0.2-0.6-0.4c-0.5-0.5-0.7-1-0.7-2.3v-2.8c0-0.9-0.1-1.2-0.8-1.4v-0.2h3.2v0.2c-0.8,0.2-1,0.4-1,1.2v2.8
	c0,1.2,0.1,1.5,0.4,1.9c0.2,0.3,0.8,0.4,1.2,0.4c1.1,0,1.7-0.6,1.7-1.7v-2c0-0.4,0-0.8,0-1.2c-0.1-1-0.2-1.2-1-1.5v-0.2h2.7v0.2
	C17.9,32,17.7,32.2,17.7,33"/>
<path class="logo-path" d="M17.7,33l-0.1,2.7c0,1.7-0.1,1.8-0.6,2.4c-0.4,0.5-1.1,0.8-2.1,0.8c-0.6,0-1.1-0.1-1.5-0.2
	c-0.2-0.1-0.4-0.2-0.6-0.4c-0.5-0.5-0.7-1-0.7-2.3v-2.8c0-0.9-0.1-1.2-0.8-1.4v-0.2h3.2v0.2c-0.8,0.2-1,0.4-1,1.2v2.8
	c0,1.2,0.1,1.5,0.4,1.9c0.2,0.3,0.8,0.4,1.2,0.4c1.1,0,1.7-0.6,1.7-1.7v-2c0-0.4,0-0.8,0-1.2c-0.1-1-0.2-1.2-1-1.5v-0.2h2.7v0.2
	C17.9,32,17.7,32.2,17.7,33z"/>
<path class="logo-path" d="M24.6,35.9c0.4-0.1,0.7-0.3,0.8-0.4c0.4-0.3,0.6-0.9,0.6-1.5c0-0.6-0.2-1.3-0.5-1.6c-0.3-0.3-0.5-0.4-1.2-0.5
	v5.4c0,0.8,0.3,1.1,1.3,1.2v0.3h-3.9v-0.2c1-0.1,1.2-0.3,1.2-1.3V33c0-0.9-0.1-1.1-0.9-1.2v-0.2l1-0.1c0.6,0,1.2-0.1,1.5-0.1
	c1.9,0,3.1,0.9,3.1,2.4c0,1.4-1,2.3-2.8,2.4c0,0-0.4,0-0.6,0H24L24,36C24,36,24.3,36,24.6,35.9"/>
<path class="logo-path" d="M24.6,35.9c0.4-0.1,0.7-0.3,0.8-0.4c0.4-0.3,0.6-0.9,0.6-1.5c0-0.6-0.2-1.3-0.5-1.6c-0.3-0.3-0.5-0.4-1.2-0.5
	v5.4c0,0.8,0.3,1.1,1.3,1.2v0.3h-3.9v-0.2c1-0.1,1.2-0.3,1.2-1.3V33c0-0.9-0.1-1.1-0.9-1.2v-0.2l1-0.1c0.6,0,1.2-0.1,1.5-0.1
	c1.9,0,3.1,0.9,3.1,2.4c0,1.4-1,2.3-2.8,2.4c0,0-0.4,0-0.6,0H24L24,36C24,36,24.3,36,24.6,35.9z"/>
<path class="logo-path" d="M36.9,33l-0.1,2.7c0,1.7-0.1,1.8-0.6,2.4c-0.4,0.5-1.1,0.8-2.1,0.8c-0.6,0-1.1-0.1-1.5-0.2
	c-0.2-0.1-0.4-0.2-0.6-0.4c-0.5-0.5-0.7-1-0.7-2.3v-2.8c0-0.9-0.1-1.2-0.8-1.4v-0.2h3.2v0.2c-0.8,0.2-1,0.4-1,1.2v2.8
	c0,1.2,0.1,1.5,0.4,1.9c0.2,0.3,0.8,0.4,1.2,0.4c1.1,0,1.7-0.6,1.7-1.7v-2c0-0.4,0-0.8,0-1.2c-0.1-1-0.2-1.2-1-1.5v-0.2h2.7v0.2
	C37,32,36.9,32.2,36.9,33"/>
<path class="logo-path" d="M36.9,33l-0.1,2.7c0,1.7-0.1,1.8-0.6,2.4c-0.4,0.5-1.1,0.8-2.1,0.8c-0.6,0-1.1-0.1-1.5-0.2
	c-0.2-0.1-0.4-0.2-0.6-0.4c-0.5-0.5-0.7-1-0.7-2.3v-2.8c0-0.9-0.1-1.2-0.8-1.4v-0.2h3.2v0.2c-0.8,0.2-1,0.4-1,1.2v2.8
	c0,1.2,0.1,1.5,0.4,1.9c0.2,0.3,0.8,0.4,1.2,0.4c1.1,0,1.7-0.6,1.7-1.7v-2c0-0.4,0-0.8,0-1.2c-0.1-1-0.2-1.2-1-1.5v-0.2h2.7v0.2
	C37,32,36.9,32.2,36.9,33z"/>
<path class="logo-path" d="M46.4,38.7l-3.5-5.4l0.1,3.9c0,0.9,0.2,1.1,1.2,1.2v0.2h-3.3v-0.2c0.9-0.1,1-0.3,1.1-1.2l0.2-3.6
	c0-1.3-0.2-1.5-1.1-1.9v-0.2h2.2l3.6,5.3L46.6,33c0-0.9-0.2-1.1-1.1-1.2v-0.2h3.2v0.2c-0.9,0.1-1.1,0.3-1.1,1.2l-0.2,5.7H46.4z"/>
<path class="logo-path" d="M46.4,38.7l-3.5-5.4l0.1,3.9c0,0.9,0.2,1.1,1.2,1.2v0.2h-3.3v-0.2c0.9-0.1,1-0.3,1.1-1.2l0.2-3.6
	c0-1.3-0.2-1.5-1.1-1.9v-0.2h2.2l3.6,5.3L46.6,33c0-0.9-0.2-1.1-1.1-1.2v-0.2h3.2v0.2c-0.9,0.1-1.1,0.3-1.1,1.2l-0.2,5.7H46.4z"/>
<path class="logo-path" d="M58.1,36.6v0.8l0.2,1.1c-0.1,0-0.3,0-0.4,0c0,0-0.1,0-0.1,0c-0.1,0-0.4,0.1-0.9,0.3c-0.4,0.1-1,0.2-1.6,0.2
	c-1.2,0-1.8-0.2-2.5-0.8c-0.7-0.7-1.2-1.7-1.2-2.8c0-2.3,1.5-3.8,3.8-3.8c0.6,0,1.1,0.1,2.4,0.3l0.1,1.9l-0.2,0.2
	c-0.7-1.3-1.3-1.8-2.2-1.8c-1.3,0-2.3,1.4-2.3,3.2c0,1.1,0.4,2.1,1,2.6c0.4,0.3,1,0.6,1.5,0.6c0.7,0,1.2-0.5,1.2-1.2v-0.5
	c0-0.8-0.2-1-1.1-1.2v-0.3H59v0.2C58.3,35.6,58.1,35.8,58.1,36.6"/>
<path class="logo-path" d="M58.1,36.6v0.8l0.2,1.1c-0.1,0-0.3,0-0.4,0c0,0-0.1,0-0.1,0c-0.1,0-0.4,0.1-0.9,0.3c-0.4,0.1-1,0.2-1.6,0.2
	c-1.2,0-1.8-0.2-2.5-0.8c-0.7-0.7-1.2-1.7-1.2-2.8c0-2.3,1.5-3.8,3.8-3.8c0.6,0,1.1,0.1,2.4,0.3l0.1,1.9l-0.2,0.2
	c-0.7-1.3-1.3-1.8-2.2-1.8c-1.3,0-2.3,1.4-2.3,3.2c0,1.1,0.4,2.1,1,2.6c0.4,0.3,1,0.6,1.5,0.6c0.7,0,1.2-0.5,1.2-1.2v-0.5
	c0-0.8-0.2-1-1.1-1.2v-0.3H59v0.2C58.3,35.6,58.1,35.8,58.1,36.6z"/>
<path class="logo-path" d="M65.2,33l-1,2.8h2L65.2,33z M66.1,38.7v-0.2c0.5-0.1,0.7-0.3,0.7-0.6c0-0.1,0-0.2-0.1-0.3l-0.4-1.1H64l-0.3,1
	c-0.1,0.2-0.1,0.3-0.1,0.4c0,0.3,0.1,0.4,0.6,0.6c0.1,0,0.1,0,0.2,0.1v0.2h-2.6v-0.2c0.5-0.3,0.6-0.4,1-1.2l2.2-5.7h1l2.4,6.3
	c0.1,0.4,0.2,0.5,0.5,0.7v0.2H66.1z"/>
<path class="logo-path" d="M65.2,33l-1,2.8h2L65.2,33z M66.1,38.7v-0.2c0.5-0.1,0.7-0.3,0.7-0.6c0-0.1,0-0.2-0.1-0.3l-0.4-1.1H64l-0.3,1
	c-0.1,0.2-0.1,0.3-0.1,0.4c0,0.3,0.1,0.4,0.6,0.6c0.1,0,0.1,0,0.2,0.1v0.2h-2.6v-0.2c0.5-0.3,0.6-0.4,1-1.2l2.2-5.7h1l2.4,6.3
	c0.1,0.4,0.2,0.5,0.5,0.7v0.2H66.1z"/>
<path class="logo-path" d="M83.6,31.9c-1,0-1.9,1.4-1.9,3.1c0,1.9,1,3.4,2.2,3.4c1,0,1.9-1.4,1.9-3.1C85.8,33.4,84.8,31.9,83.6,31.9
	 M83.8,38.9c-1.1,0-1.8-0.3-2.5-1c-0.7-0.7-1.1-1.7-1.1-2.7c0-2.3,1.4-3.8,3.6-3.8c1.1,0,1.8,0.3,2.5,1c0.7,0.7,1.1,1.7,1.1,2.8
	C87.4,37.4,85.9,38.9,83.8,38.9"/>
<path class="logo-path" d="M83.6,31.9c-1,0-1.9,1.4-1.9,3.1c0,1.9,1,3.4,2.2,3.4c1,0,1.9-1.4,1.9-3.1C85.8,33.4,84.8,31.9,83.6,31.9z
	 M83.8,38.9c-1.1,0-1.8-0.3-2.5-1c-0.7-0.7-1.1-1.7-1.1-2.7c0-2.3,1.4-3.8,3.6-3.8c1.1,0,1.8,0.3,2.5,1c0.7,0.7,1.1,1.7,1.1,2.8
	C87.4,37.4,85.9,38.9,83.8,38.9z"/>
<path class="logo-path" d="M77,31.5l0.3,1.4L77,33.1c-0.7-0.8-1.1-1-1.7-1h-0.6l0,5.2c0,0.8,0.4,1.1,1.4,1.2v0.2H72v-0.2
	c1-0.2,1.3-0.5,1.3-1.2l0-5.2h-0.6c-0.7,0-1.1,0.2-1.7,1L70.8,33l0.3-1.5H77z"/>
<path class="logo-path" d="M77,31.5l0.3,1.4L77,33.1c-0.7-0.8-1.1-1-1.7-1h-0.6l0,5.2c0,0.8,0.4,1.1,1.4,1.2v0.2H72v-0.2
	c1-0.2,1.3-0.5,1.3-1.2l0-5.2h-0.6c-0.7,0-1.1,0.2-1.7,1L70.8,33l0.3-1.5H77z"/>
<path class="logo-path" d="M29.7,22.2L28.2,6.6c-0.1-1.1-0.1-1.4-0.1-1.5c0-0.8,0.3-1.5,2.4-1.5l0.2,0V3.4V2.7V2.5h-0.2h-7.3h-0.1l0,0.1
	l-5.3,13.5L12.5,2.6l0-0.1h-0.1H4.7H4.5v0.2v0.7v0.2l0.2,0c2.2,0.3,2.4,1.1,2.4,1.7c0,0.1,0,0.4-0.1,0.8L6.9,7.3c0,0-2,13.8-2,13.8
	c-0.3,2.1-0.9,2.8-3.1,3.5l-0.1,0v0.1v0.7v0.2h0.2h9.1h0.2v-0.2v-0.7v-0.2l-0.1,0c-2.4-0.6-2.9-1.2-2.9-3.8c0-0.6,0-1.2,0.1-1.9
	c0,0,0.8-7.4,1.1-9.9l6.5,17.2l0.2,0.5l0.2-0.5l7.2-17.4L24.4,22v0c0,0.1,0,0.2,0,0.2c0,0.1,0,0.1,0,0.2c0,1.6-0.3,2-1.9,2.2l-0.2,0
	v0.2v0.7v0.2h0.2h9h0.2v-0.2v-0.7v-0.2l-0.2,0C30.1,24.3,29.8,24,29.7,22.2"/>
<path class="logo-path" d="M40.7,16l2.9-8.1l2.9,8.1H40.7z M57.5,24.6c-1.6-0.4-2.5-1-2.9-2.1c0,0-7.5-19.9-7.5-19.9l0-0.1H47h-3.9H43
	l0,0.1l-7.1,18.2c-1.1,2.8-1.3,3-2.9,3.8l-0.1,0.1v0.1v0.7v0.2H33h8.2h0.2v-0.2v-0.7v-0.1c0,0-0.1,0-0.1,0l-0.3-0.1
	c-0.2-0.1-0.3-0.1-0.4-0.1l0,0l0,0c-1.4-0.4-1.7-0.8-1.7-1.6c0-0.4,0.1-0.9,0.2-1.3c0,0,0.8-2.5,1-3.1h7.4l1.2,3.3
	c0.1,0.3,0.2,0.7,0.2,1c0,0.9-0.4,1.6-2.2,1.9l-0.2,0v0.2v0.7v0.2h0.2h10.9h0.2v-0.2v-0.7v-0.2L57.5,24.6z"/>
<path class="logo-path" d="M87.4,24.9c-2.4-0.6-2.9-1.3-2.9-4V7.4c0-2.6,0.4-3.3,2.6-4l0,0V3.3V2.5V2.5h-0.1H82h-0.3h-5h-0.1v0.1v0.7v0.1
	l0,0c2.2,0.7,2.6,1.5,2.6,4v13.5c0,2.6-0.5,3.4-2.9,4l-0.1,0v0.1v0.7v0.1h0.1h5.2h0.2h5.6h0.1v-0.1L87.4,24.9L87.4,24.9L87.4,24.9z"
	/>
<path class="logo-path" d="M66.5,2.5l-0.3,0c-2.2,0-4.2,0.8-5.5,2.1c-1.2,1.2-1.8,2.7-1.8,4.5c0,1.8,0.7,3.5,2.2,4.8c1,1,2.6,1.8,4.1,2.7
	c1.5,0.8,2.9,1.6,3.8,2.4c0.7,0.7,1.1,1.6,1.1,2.4c0,1.7-1.7,2.9-4.1,2.9c-3.4,0-5.5-1.6-6.1-4.6l0-0.2h-0.2H59h-0.2v0.2l0,5.9v0.2
	l8,0.1c1.8,0,4.3-0.6,5.9-2.3c1.1-1.1,1.7-2.6,1.7-4.3c0-1.9-0.8-3.5-2.6-5.2c-0.8-0.7-2.6-1.8-4.4-2.8c-1.6-0.9-3.1-1.8-3.6-2.3
	c-0.7-0.7-1.1-1.4-1.1-2.2c0-1.5,1.6-2.8,3.7-2.8c2.2,0,4.7,1,5.6,3.6l0,0.1h0.1h0.7H73V7.7l0-5V2.5L66.5,2.5z"/>
<path class="logo-path" d="M89.9,6.2c0.1,0,0.2,0,0.3,0c0.1,0,0.2,0,0.3-0.1c0.1,0,0.1-0.1,0.2-0.2c0-0.1,0.1-0.2,0.1-0.3
	c0-0.1,0-0.2-0.1-0.3c0-0.1-0.1-0.1-0.2-0.1c-0.1,0-0.1-0.1-0.2-0.1s-0.2,0-0.3,0h-0.7v1H89.9z M90.1,4.7c0.4,0,0.7,0.1,0.9,0.2
	c0.2,0.2,0.3,0.4,0.3,0.7c0,0.3-0.1,0.5-0.3,0.6c-0.2,0.1-0.4,0.2-0.6,0.2L91.3,8h-0.6l-0.9-1.4h-0.5V8h-0.5V4.7H90.1z M87.8,7.3
	c0.1,0.3,0.3,0.5,0.5,0.8c0.2,0.2,0.5,0.4,0.7,0.5c0.3,0.1,0.6,0.2,0.9,0.2c0.3,0,0.6-0.1,0.9-0.2c0.3-0.1,0.5-0.3,0.7-0.5
	c0.2-0.2,0.4-0.5,0.5-0.8c0.1-0.3,0.2-0.6,0.2-1c0-0.3-0.1-0.7-0.2-0.9c-0.1-0.3-0.3-0.5-0.5-0.8c-0.2-0.2-0.5-0.4-0.7-0.5
	c-0.3-0.1-0.6-0.2-0.9-0.2c-0.3,0-0.6,0.1-0.9,0.2c-0.3,0.1-0.5,0.3-0.7,0.5c-0.2,0.2-0.4,0.5-0.5,0.8c-0.1,0.3-0.2,0.6-0.2,0.9
	C87.6,6.7,87.7,7,87.8,7.3 M87.3,5.2c0.2-0.3,0.4-0.6,0.6-0.9c0.3-0.3,0.6-0.4,0.9-0.6c0.3-0.1,0.7-0.2,1.1-0.2s0.8,0.1,1.1,0.2
	c0.3,0.1,0.6,0.3,0.9,0.6c0.3,0.3,0.5,0.5,0.6,0.9c0.1,0.3,0.2,0.7,0.2,1.1c0,0.4-0.1,0.8-0.2,1.1c-0.2,0.3-0.4,0.6-0.6,0.9
	c-0.3,0.3-0.6,0.5-0.9,0.6c-0.3,0.1-0.7,0.2-1.1,0.2s-0.8-0.1-1.1-0.2c-0.3-0.1-0.6-0.3-0.9-0.6c-0.3-0.3-0.5-0.6-0.6-0.9
	c-0.2-0.3-0.2-0.7-0.2-1.1C87.1,5.9,87.2,5.6,87.3,5.2"/>
</svg>
